<?xml version="1.0" encoding="UTF-8" standalone="no"?>
<!-- Created with Inkscape (http://www.inkscape.org/) -->

<svg
   xmlns:dc="http://purl.org/dc/elements/1.1/"
   xmlns:cc="http://creativecommons.org/ns#"
   xmlns:rdf="http://www.w3.org/1999/02/22-rdf-syntax-ns#"
   xmlns:svg="http://www.w3.org/2000/svg"
   xmlns="http://www.w3.org/2000/svg"
   xmlns:xlink="http://www.w3.org/1999/xlink"
   xmlns:sodipodi="http://sodipodi.sourceforge.net/DTD/sodipodi-0.dtd"
   xmlns:inkscape="http://www.inkscape.org/namespaces/inkscape"
   width="744.09448819"
   height="1052.3622047"
   id="svg2"
   version="1.1"
   inkscape:version="0.48.2 r9819"
   sodipodi:docname="cloud.svg">
  <defs
     id="defs4">
    <linearGradient
       inkscape:collect="always"
       id="linearGradient3806">
      <stop
         style="stop-color:#e6e6e6;stop-opacity:1;"
         offset="0"
         id="stop3808" />
      <stop
         style="stop-color:#e6e6e6;stop-opacity:0;"
         offset="1"
         id="stop3810" />
    </linearGradient>
    <linearGradient
       inkscape:collect="always"
       xlink:href="#linearGradient3806"
       id="linearGradient3812"
       x1="336.44196"
       y1="377.35715"
       x2="352.14731"
       y2="611.64288"
       gradientUnits="userSpaceOnUse"
       gradientTransform="translate(-73.575892,44.645379)" />
    <linearGradient
       inkscape:collect="always"
       xlink:href="#linearGradient3806-7"
       id="linearGradient3812-1"
       x1="336.44196"
       y1="377.35715"
       x2="352.14731"
       y2="611.64288"
       gradientUnits="userSpaceOnUse"
       gradientTransform="translate(-62.857139,-40)" />
    <linearGradient
       inkscape:collect="always"
       id="linearGradient3806-7">
      <stop
         style="stop-color:#e6e6e6;stop-opacity:1;"
         offset="0"
         id="stop3808-4" />
      <stop
         style="stop-color:#e6e6e6;stop-opacity:0;"
         offset="1"
         id="stop3810-0" />
    </linearGradient>
  </defs>
  <sodipodi:namedview
     id="base"
     pagecolor="#ffffff"
     bordercolor="#666666"
     borderopacity="1.0"
     inkscape:pageopacity="0.0"
     inkscape:pageshadow="2"
     inkscape:zoom="0.35"
     inkscape:cx="375"
     inkscape:cy="520"
     inkscape:document-units="px"
     inkscape:current-layer="layer1"
     showgrid="false"
     inkscape:window-width="675"
     inkscape:window-height="462"
     inkscape:window-x="536"
     inkscape:window-y="283"
     inkscape:window-maximized="0" />
  <metadata
     id="metadata7">
    <rdf:RDF>
      <cc:Work
         rdf:about="">
        <dc:format>image/svg+xml</dc:format>
        <dc:type
           rdf:resource="http://purl.org/dc/dcmitype/StillImage" />
        <dc:title />
      </cc:Work>
    </rdf:RDF>
  </metadata>
  <g
     inkscape:label="Layer 1"
     inkscape:groupmode="layer"
     id="layer1">
    <path
       style="color:#000000;fill:#ffffff;fill-opacity:1;stroke:#000000;stroke-width:10;stroke-miterlimit:4;stroke-opacity:1;stroke-dasharray:none;marker:none;visibility:visible;display:inline;overflow:visible;enable-background:accumulate"
       d="m 313.58036,359.86413 c -28.03324,0 -53.70206,11.76139 -73.4375,31.25 -11.5089,-3.59505 -23.78926,-5.53125 -36.5625,-5.53125 -49.11344,0 -91.1534,28.75861 -108.562504,69.53125 -36.47785,16.57089 -61.4375,50.21222 -61.4375,89.03125 0,55.22848 50.51447,100 112.843754,100 3.43564,0 6.83006,-0.13994 10.1875,-0.40625 11.76828,42.82991 56.45779,74.6875 109.8125,74.6875 46.46719,0 86.3846,-24.15439 103.6875,-58.6875 16.37215,8.27449 35.04278,12.96875 54.875,12.96875 64.69621,0 117.15625,-49.86595 117.15625,-111.40625 0,-61.5403 -52.46004,-111.4375 -117.15625,-111.4375 -1.34423,0 -2.66671,0.0198 -4,0.0625 -14.63243,-52.25274 -57.1758,-90.0625 -107.40625,-90.0625 z"
       id="path2985-9"
       inkscape:connector-curvature="0" />
    <path
       style="color:#000000;fill:url(#linearGradient3812);fill-opacity:1;stroke:#000000;stroke-width:10;stroke-miterlimit:4;stroke-opacity:1;stroke-dasharray:none;marker:none;visibility:visible;display:inline;overflow:visible;enable-background:accumulate"
       d="m 313.58036,359.86413 c -28.03324,0 -53.70206,11.76139 -73.4375,31.25 -11.5089,-3.59505 -23.78926,-5.53125 -36.5625,-5.53125 -49.11344,0 -91.1534,28.75861 -108.562503,69.53125 -36.477849,16.57089 -61.437499,50.21222 -61.437499,89.03125 0,55.22848 50.514466,100 112.843752,100 3.43564,0 6.83006,-0.13994 10.1875,-0.40625 11.76828,42.82991 56.45779,74.6875 109.8125,74.6875 46.46719,0 86.3846,-24.15439 103.6875,-58.6875 16.37215,8.27449 35.04278,12.96875 54.875,12.96875 64.69621,0 117.15625,-49.86595 117.15625,-111.40625 0,-61.5403 -52.46004,-111.4375 -117.15625,-111.4375 -1.34423,0 -2.66671,0.0198 -4,0.0625 -14.63243,-52.25274 -57.1758,-90.0625 -107.40625,-90.0625 z"
       id="path2985"
       inkscape:connector-curvature="0" />
  </g>
</svg>
