<?xml version="1.0" encoding="UTF-8" standalone="no"?>
<!-- Created with Inkscape (http://www.inkscape.org/) -->

<svg
   xmlns:dc="http://purl.org/dc/elements/1.1/"
   xmlns:cc="http://creativecommons.org/ns#"
   xmlns:rdf="http://www.w3.org/1999/02/22-rdf-syntax-ns#"
   xmlns:svg="http://www.w3.org/2000/svg"
   xmlns="http://www.w3.org/2000/svg"
   xmlns:xlink="http://www.w3.org/1999/xlink"
   xmlns:sodipodi="http://sodipodi.sourceforge.net/DTD/sodipodi-0.dtd"
   xmlns:inkscape="http://www.inkscape.org/namespaces/inkscape"
   width="744.09448819"
   height="1052.3622047"
   id="svg2"
   version="1.1"
   inkscape:version="0.48.2 r9819"
   sodipodi:docname="新建文档 1">
  <defs
     id="defs4">
    <linearGradient
       inkscape:collect="always"
       id="linearGradient4127">
      <stop
         style="stop-color:#000000;stop-opacity:1;"
         offset="0"
         id="stop4129" />
      <stop
         style="stop-color:#000000;stop-opacity:0;"
         offset="1"
         id="stop4131" />
    </linearGradient>
    <linearGradient
       inkscape:collect="always"
       id="linearGradient4101">
      <stop
         style="stop-color:#000000;stop-opacity:1;"
         offset="0"
         id="stop4103" />
      <stop
         style="stop-color:#000000;stop-opacity:0;"
         offset="1"
         id="stop4105" />
    </linearGradient>
    <linearGradient
       inkscape:collect="always"
       id="linearGradient3954">
      <stop
         style="stop-color:#ffffff;stop-opacity:1;"
         offset="0"
         id="stop3956" />
      <stop
         style="stop-color:#ffd7ff;stop-opacity:1"
         offset="1"
         id="stop3958" />
    </linearGradient>
    <filter
       inkscape:collect="always"
       id="filter3932"
       x="-0.11334853"
       width="1.2266971"
       y="-0.18489679"
       height="1.3697936">
      <feGaussianBlur
         inkscape:collect="always"
         stdDeviation="16.307213"
         id="feGaussianBlur3934" />
    </filter>
    <linearGradient
       inkscape:collect="always"
       xlink:href="#linearGradient3954"
       id="linearGradient3960"
       x1="460.83374"
       y1="880.8158"
       x2="605.4726"
       y2="983.67291"
       gradientUnits="userSpaceOnUse"
       gradientTransform="translate(-46.428571,-67.142857)" />
    <linearGradient
       inkscape:collect="always"
       xlink:href="#linearGradient4101-6"
       id="linearGradient4107-4"
       x1="383.60614"
       y1="821.64789"
       x2="381.75104"
       y2="885.57648"
       gradientUnits="userSpaceOnUse"
       gradientTransform="translate(26.428571,-20)" />
    <linearGradient
       inkscape:collect="always"
       id="linearGradient4101-6">
      <stop
         style="stop-color:#000000;stop-opacity:1;"
         offset="0"
         id="stop4103-0" />
      <stop
         style="stop-color:#000000;stop-opacity:0;"
         offset="1"
         id="stop4105-3" />
    </linearGradient>
    <linearGradient
       inkscape:collect="always"
       xlink:href="#linearGradient4127-2"
       id="linearGradient4133-6"
       x1="493.09747"
       y1="909.14789"
       x2="456.54538"
       y2="857.36218"
       gradientUnits="userSpaceOnUse"
       gradientTransform="translate(-34.285714,-42.142857)" />
    <linearGradient
       inkscape:collect="always"
       id="linearGradient4127-2">
      <stop
         style="stop-color:#000000;stop-opacity:1;"
         offset="0"
         id="stop4129-4" />
      <stop
         style="stop-color:#000000;stop-opacity:0;"
         offset="1"
         id="stop4131-5" />
    </linearGradient>
    <linearGradient
       y2="857.36218"
       x2="456.54538"
       y1="909.14789"
       x1="493.09747"
       gradientTransform="translate(-34.285714,-42.142857)"
       gradientUnits="userSpaceOnUse"
       id="linearGradient4166"
       xlink:href="#linearGradient4127-2"
       inkscape:collect="always" />
    <linearGradient
       inkscape:collect="always"
       xlink:href="#linearGradient4127"
       id="linearGradient4208"
       gradientUnits="userSpaceOnUse"
       gradientTransform="translate(-362.85714,-6.4285713)"
       x1="493.09747"
       y1="909.14789"
       x2="456.54538"
       y2="857.36218" />
    <linearGradient
       inkscape:collect="always"
       xlink:href="#linearGradient4101"
       id="linearGradient4211"
       gradientUnits="userSpaceOnUse"
       gradientTransform="translate(-302.14286,15.357143)"
       x1="383.60614"
       y1="821.64789"
       x2="381.75104"
       y2="885.57648" />
    <linearGradient
       inkscape:collect="always"
       xlink:href="#linearGradient4101-6-2"
       id="linearGradient4107-4-8"
       x1="383.60614"
       y1="821.64789"
       x2="381.75104"
       y2="885.57648"
       gradientUnits="userSpaceOnUse"
       gradientTransform="translate(26.428571,-20)" />
    <linearGradient
       inkscape:collect="always"
       id="linearGradient4101-6-2">
      <stop
         style="stop-color:#000000;stop-opacity:1;"
         offset="0"
         id="stop4103-0-4" />
      <stop
         style="stop-color:#000000;stop-opacity:0;"
         offset="1"
         id="stop4105-3-5" />
    </linearGradient>
    <linearGradient
       y2="857.36218"
       x2="456.54538"
       y1="909.14789"
       x1="493.09747"
       gradientTransform="translate(-34.285714,-42.142857)"
       gradientUnits="userSpaceOnUse"
       id="linearGradient4166-2"
       xlink:href="#linearGradient4127-2-9"
       inkscape:collect="always" />
    <linearGradient
       inkscape:collect="always"
       id="linearGradient4127-2-9">
      <stop
         style="stop-color:#000000;stop-opacity:1;"
         offset="0"
         id="stop4129-4-9" />
      <stop
         style="stop-color:#000000;stop-opacity:0;"
         offset="1"
         id="stop4131-5-8" />
    </linearGradient>
    <filter
       inkscape:collect="always"
       id="filter4333"
       x="-0.35027832"
       width="1.7005566"
       y="-0.66752621"
       height="2.3350524">
      <feGaussianBlur
         inkscape:collect="always"
         stdDeviation="37.152639"
         id="feGaussianBlur4335" />
    </filter>
    <linearGradient
       inkscape:collect="always"
       xlink:href="#linearGradient3954"
       id="linearGradient4345"
       gradientUnits="userSpaceOnUse"
       gradientTransform="translate(-46.428571,-67.142857)"
       x1="460.83374"
       y1="880.8158"
       x2="605.4726"
       y2="983.67291" />
  </defs>
  <sodipodi:namedview
     id="base"
     pagecolor="#ffffff"
     bordercolor="#666666"
     borderopacity="1.0"
     inkscape:pageopacity="0.0"
     inkscape:pageshadow="2"
     inkscape:zoom="0.7"
     inkscape:cx="235.9713"
     inkscape:cy="609.1951"
     inkscape:document-units="px"
     inkscape:current-layer="svg2"
     showgrid="false"
     inkscape:window-width="1366"
     inkscape:window-height="706"
     inkscape:window-x="-8"
     inkscape:window-y="-8"
     inkscape:window-maximized="1" />
  <metadata
     id="metadata7">
    <rdf:RDF>
      <cc:Work
         rdf:about="">
        <dc:format>image/svg+xml</dc:format>
        <dc:type
           rdf:resource="http://purl.org/dc/dcmitype/StillImage" />
        <dc:title></dc:title>
      </cc:Work>
    </rdf:RDF>
  </metadata>
  <g
     inkscape:groupmode="layer"
     id="layer2"
     inkscape:label="层" />
  <g
     id="g4337"
     transform="translate(-202.85714,-504.28572)">
    <path
       sodipodi:nodetypes="ccccccccccccccccccccccccccccccccccccccccccccc"
       inkscape:connector-curvature="0"
       id="path3815-4-4"
       d="m 410.86734,819.75781 c -7.89944,13.61114 -21.25972,10.32564 -26.57187,8.06724 -9.64136,6.0191 -17.4891,15.921 -31.10854,13.3284 -1.41799,4.5373 -3.63721,7.7738 -8.74927,6.3135 -2.72809,10.2287 -5.49364,20.37616 -13.28594,19.64186 -5.76003,9.9645 -7.09374,16.5753 -4.21262,19.9926 4.36313,6.579 8.05667,9.8965 10.69356,8.0673 10.82713,2.8399 11.40245,5.2508 13.28595,7.7164 l -4.86072,12.9777 c -2.79793,20.4813 7.68195,10.9451 13.28595,14.7314 5.85568,0.6225 10.00848,2.7809 10.69354,8.0672 6.39129,3.8328 2.02412,6.0593 31.4326,13.3284 19.66176,5.6295 24.7944,13.6784 34.02496,21.0449 8.20891,5.3769 15.22448,5.5872 21.71117,3.5075 19.58052,-16.5716 34.5816,1.2084 55.41208,-14.7314 7.21343,2.6635 11.25113,1.8896 13.28594,-1.0523 -1.38987,-14.5243 3.55005,-16.1048 14.25809,-11.2239 10.40262,-1.1602 9.99004,-5.247 14.25807,-8.0672 -0.74664,-4.6411 -4.83776,-8.0755 -0.97214,-14.3806 10.70211,-0.9674 19.40163,1.6259 34.02496,-6.3135 1.52797,-8.4015 -6.57791,-8.9823 -11.34164,-12.2762 -8.82336,-0.046 -21.38912,4.9716 -23.9795,-3.5075 -0.30174,-3.6217 -2.23628,-7.4398 4.8607,-10.1717 -4.76289,-21.8157 -5.63201,-43.14376 27.54403,-18.9404 13.08095,3.7541 23.8248,-0.04 35.32114,-1.403 4.85856,-3.8861 2.30217,-5.5712 1.2962,-7.7165 7.62728,-4.87246 13.87769,-0.8032 20.73903,-0.7014 6.37293,-0.3125 12.74585,-0.341 19.11878,-7.01496 4.76566,-9.9594 -3.16691,-10.2976 -6.15689,-14.3807 10.86857,3.0413 12.27146,-1.6607 15.87832,-4.5597 -0.32404,-3.527 -0.64811,-6.8133 -0.97215,-11.224 -2.57174,-2.82894 -7.44576,-4.72344 -3.56452,-10.17174 -5.34445,-2.7134 -7.67349,-6.7324 -21.06308,-5.9627 2.59997,-11.117 -5.15441,-8.536 -9.72141,-10.1717 -10.11977,0.3312 -21.63724,-3.372 -34.34901,-10.5224 0.0731,-2.44204 -3.33942,-5.51289 -13.61,-9.82094 2.34842,-9.08594 -5.55453,-11.23682 -9.39736,-16.13441 -27.79794,13.63601 -42.91654,21.30502 -50.87542,25.60461 -4.71053,-4.21472 -9.65039,-7.97435 -19.44284,-2.1045 -6.72539,-0.98873 -12.28835,-6.1714 -21.38712,1.40301 -3.81736,15.65463 -5.97339,16.02453 -8.10117,16.13443 -11.2972,-4.1368 -15.03911,9.4073 -21.06309,8.7687 l -11.34165,2.8059 -6.805,4.209 c -11.90305,3.2113 -12.19355,-6.4601 -28.19212,-3.1567 z"
       style="fill:#584f52;fill-opacity:1;stroke:none;filter:url(#filter3932)" />
    <path
       sodipodi:nodetypes="ccccccccccccccccccccccccccccccccccccccccccccc"
       inkscape:connector-curvature="0"
       id="path3815"
       d="m 414.84977,815.51592 c -7.46203,12.25171 -20.08251,9.29443 -25.10051,7.26153 -9.10749,5.41797 -16.52067,14.33099 -29.38596,11.99731 -1.33948,4.08417 -3.43581,6.99742 -8.2648,5.68294 -2.57703,9.20711 -5.18944,18.34123 -12.55026,17.68025 -5.44107,8.96935 -6.70094,14.91994 -3.97935,17.99596 4.12153,5.92192 7.61054,8.90802 10.10143,7.26152 10.22759,2.55629 10.77106,4.72642 12.55026,6.94582 l -4.59157,11.68158 c -2.64299,18.43578 7.25658,9.85196 12.55026,13.26019 5.53144,0.56028 9.45429,2.50315 10.10142,7.26153 6.03738,3.44997 1.91203,5.45415 29.69207,11.99731 18.57304,5.06726 23.42146,12.31231 32.1409,18.94312 7.75435,4.83986 14.38145,5.02911 20.50895,3.15719 18.49629,-14.91656 32.66672,1.08765 52.34375,-13.26018 6.81399,2.39746 10.62812,1.70086 12.55026,-0.94716 -1.31291,-13.07377 3.35346,-14.49644 13.46857,-10.103 9.82659,-1.04433 9.43686,-4.72297 13.46856,-7.26153 -0.7053,-4.17758 -4.56987,-7.26899 -0.91831,-12.94447 10.1095,-0.87073 18.3273,1.46361 32.1409,-5.68293 1.44335,-7.56245 -6.21368,-8.08521 -10.71363,-11.05016 -8.33478,-0.0413 -20.20473,4.47511 -22.65168,-3.15719 -0.28503,-3.26 -2.11245,-6.69678 4.59155,-9.15583 -4.49915,-19.63693 -5.32014,-38.83502 26.01883,-17.04881 12.35662,3.37918 22.50555,-0.0356 33.36531,-1.26287 4.58952,-3.49803 2.17469,-5.01479 1.22442,-6.94582 7.20493,-4.38596 13.10924,-0.72307 19.59064,-0.63143 6.02004,-0.28127 12.04008,-0.30688 18.06012,-6.31438 4.50177,-8.96472 -2.99154,-9.26915 -5.81597,-12.94447 10.26675,2.73755 11.59195,-1.49483 14.99909,-4.10433 -0.3061,-3.17477 -0.61221,-6.13288 -0.91831,-10.10301 -2.42934,-2.54644 -7.03347,-4.25172 -3.36714,-9.15584 -5.04852,-2.44246 -7.24859,-6.0601 -19.89675,-5.36722 2.45599,-10.00678 -4.86901,-7.68353 -9.18311,-9.15583 -9.55941,0.29806 -20.43912,-3.03525 -32.44701,-9.47157 0.0691,-2.19815 -3.1545,-4.96232 -12.85636,-8.84012 2.21837,-8.17852 -5.24697,-10.1146 -8.87701,-14.52306 -26.25868,12.27418 -40.54012,19.17728 -48.05829,23.04747 -4.44969,-3.79379 -9.11601,-7.17795 -18.36623,-1.89432 -6.35298,-0.88999 -11.60791,-5.55506 -20.20285,1.26288 -3.60598,14.09116 -5.64263,14.42414 -7.65259,14.52306 -10.67163,-3.72361 -14.20634,8.4678 -19.89676,7.89296 l -10.71363,2.52575 -6.42818,3.78863 c -11.24394,2.89055 -11.51835,-5.81497 -26.63103,-2.84147 z"
       style="fill:none;stroke:#000000;stroke-width:0.87044734px;stroke-linecap:butt;stroke-linejoin:miter;stroke-opacity:1" />
    <path
       sodipodi:nodetypes="ccccccccccccccccccccccccccccccccccccccccccccc"
       inkscape:connector-curvature="0"
       id="path3815-4"
       d="m 415.11597,812.31154 c -7.02425,11.34605 -18.90432,8.60737 -23.62792,6.72475 -8.57318,5.01746 -15.55145,13.27162 -27.66197,11.11045 -1.26089,3.78226 -3.23424,6.48016 -7.77992,5.26285 -2.42584,8.5265 -4.88499,16.98541 -11.81397,16.37329 -5.12186,8.30632 -6.30781,13.81703 -3.74589,16.66567 3.87973,5.48416 7.16405,8.24952 9.5088,6.72474 9.62757,2.36732 10.13915,4.37703 11.81397,6.43237 l -4.32219,10.81806 c -2.48794,17.07297 6.83085,9.12368 11.81397,12.27997 5.20692,0.51886 8.89963,2.31811 9.50879,6.72475 5.68318,3.19494 1.79986,5.05097 27.95012,11.11044 17.4834,4.69268 22.04738,11.40217 30.25527,17.54282 7.29943,4.48209 13.53773,4.65735 19.30575,2.9238 17.41116,-13.8139 30.75024,1.00725 49.27287,-12.27996 6.41424,2.22023 10.0046,1.57513 11.81397,-0.87715 -1.23588,-12.10733 3.15673,-13.42484 12.67841,-9.35617 9.25009,-0.96713 8.88322,-4.37384 12.67839,-6.72474 -0.66392,-3.86877 -4.30177,-6.73166 -0.86443,-11.98759 9.5164,-0.80637 17.25208,1.35541 30.25527,-5.26284 1.35868,-7.00342 -5.84913,-7.48754 -10.08508,-10.23332 -7.8458,-0.0382 -19.01938,4.14431 -21.32277,-2.9238 -0.26831,-3.01902 -1.98852,-6.20174 4.32218,-8.47902 -4.2352,-18.18533 -5.00803,-35.96427 24.49237,-15.78853 11.63169,3.12939 21.18521,-0.033 31.40785,-1.16952 4.32027,-3.23945 2.04711,-4.64408 1.15259,-6.43237 6.78224,-4.06174 12.34015,-0.66962 18.44131,-0.58475 5.66686,-0.26048 11.33372,-0.2842 17.00058,-5.84761 4.23766,-8.30204 -2.81604,-8.58396 -5.47476,-11.9876 9.66442,2.53519 10.91188,-1.38433 14.11913,-3.80093 -0.28814,-2.94008 -0.5763,-5.67952 -0.86444,-9.35618 -2.28681,-2.3582 -6.62083,-3.93742 -3.1696,-8.47902 -4.75233,-2.26191 -6.82333,-5.61213 -18.72946,-4.97047 2.31191,-9.26706 -4.58335,-7.11555 -8.64436,-8.47901 -8.99858,0.27603 -19.24001,-2.81088 -30.54342,-8.77142 0.065,-2.03566 -2.96944,-4.59549 -12.10212,-8.18664 2.08823,-7.57395 -4.93914,-9.36691 -8.35621,-13.44949 -24.71816,11.36685 -38.16174,17.75966 -45.23884,21.34376 -4.18864,-3.51335 -8.5812,-6.64734 -17.28873,-1.75429 -5.98027,-0.8242 -10.9269,-5.14442 -19.0176,1.16953 -3.39443,13.04952 -5.31159,13.35788 -7.20363,13.44949 -10.04556,-3.44836 -13.3729,7.84184 -18.72947,7.3095 l -10.08509,2.33904 -6.05106,3.50857 c -10.58429,2.67687 -10.8426,-5.38512 -25.06866,-2.63143 z"
       style="fill:#dcd9ac;fill-opacity:1;stroke:#000000;stroke-width:0.81271434px;stroke-linecap:butt;stroke-linejoin:miter;stroke-opacity:1" />
    <path
       inkscape:connector-curvature="0"
       id="path3815-0"
       d="m 573.78952,767.61364 c -2.32733,1.08787 -4.07596,1.90114 -6.21875,2.90625 3.39189,2.66177 7.17065,5.07353 5.5625,10.90625 9.13268,3.59115 12.19,6.15184 12.125,8.1875 10.19882,5.37806 19.50692,8.41023 27.84375,8.75 -5.54687,-1.59703 -11.42544,-4.09999 -17.59375,-7.40625 0.0691,-2.19815 -3.14189,-4.9347 -12.84375,-8.8125 2.21837,-8.17852 -5.24496,-10.12279 -8.875,-14.53125 z m -57.71875,18.4375 c -0.39162,-0.003 -0.80426,-0.009 -1.21875,0.0312 1.71206,0.80931 3.20764,1.97747 4.6875,3.21875 0.72119,-0.36524 1.82889,-0.88664 2.6875,-1.3125 -1.79626,-1.13272 -3.77193,-1.91676 -6.15625,-1.9375 z m -18.375,0.40625 c 1.5039,0.44283 2.99168,0.87726 4.5625,1.09375 0.0297,-0.0167 0.0641,-0.0147 0.0937,-0.0312 -1.5239,-0.45489 -3.04983,-0.89133 -4.65625,-1.0625 z m 125.9375,13.875 c 1.19494,1.02382 1.71769,2.90292 0.8125,6.53122 6.64638,-0.3582 10.21223,0.5353 12.90625,1.7813 1.74247,-8.87174 -5.20797,-6.7967 -9.375,-8.2188 -1.41413,0.044 -2.87245,0.019 -4.34375,-0.0937 z m 15.4375,9.18752 c 1.35784,0.7704 2.59513,1.5992 4.09375,2.3125 -3.45123,4.5416 0.86944,6.1105 3.15625,8.4687 0.28814,3.6767 0.58686,6.4349 0.875,9.375 -3.20725,2.4166 -4.46058,6.3165 -14.125,3.7813 2.65872,3.4037 9.70641,3.698 5.46875,12 -5.66686,5.5634 -11.33314,5.5832 -17,5.8437 -6.10116,-0.085 -11.65526,-3.468 -18.4375,0.5938 0.89452,1.7883 3.16402,3.1981 -1.15625,6.4375 -10.22264,1.1366 -19.77456,4.2857 -31.40625,1.1563 -29.5004,-20.1758 -28.70395,-2.4041 -24.46875,15.7812 -6.3107,2.2773 -4.61206,5.481 -4.34375,8.5 1.01973,3.1291 3.78045,4.0322 7.21875,4.0938 0.30778,-1.6215 1.49604,-3.1127 4.9375,-4.375 -4.49915,-19.6369 -5.30772,-38.8488 26.03125,-17.0626 12.35662,3.3793 22.48399,-0.023 33.34375,-1.25 4.58952,-3.498 2.20027,-5.0377 1.25,-6.9687 7.20493,-4.386 13.11235,-0.7167 19.59375,-0.625 6.02004,-0.2813 12.04246,-0.305 18.0625,-6.3125 4.50177,-8.9647 -3.01932,-9.2622 -5.84375,-12.9375 10.26675,2.7376 11.59286,-1.5155 15,-4.125 -0.3061,-3.1748 -0.60015,-6.1236 -0.90625,-10.0937 -2.42934,-2.5466 -7.04133,-4.2521 -3.375,-9.1563 -4.78116,-2.3131 -7.00313,-5.6759 -17.96875,-5.4375 z m -277.71875,25.6562 c -0.0572,0.1746 -0.12734,0.33 -0.1875,0.5 0.24667,-0.1132 0.46721,-0.2528 0.6875,-0.4062 -0.16816,-0.027 -0.32995,-0.063 -0.5,-0.094 z m -8.28125,5.6876 c -0.9986,3.5677 -1.9978,7.1136 -3.28125,10.0937 2.57185,-1.8411 4.23716,-5.5374 5.625,-9.7813 -0.69605,0.016 -1.48653,-0.079 -2.34375,-0.3124 z m -12.53125,17.6562 c -5.44107,8.9694 -6.69034,14.924 -3.96875,18 4.12153,5.9219 7.60286,8.9277 10.09375,7.2812 10.22759,2.5563 10.75205,4.7182 12.53125,6.9376 l -4.59375,11.6874 c -2.64299,18.4358 7.26882,9.8419 12.5625,13.25 5.53144,0.5604 9.44662,2.4918 10.09375,7.25 6.03738,3.4501 1.90746,5.4569 29.6875,12 18.57304,5.0673 23.43681,12.338 32.15625,18.9688 7.75435,4.8399 14.3725,5.0282 20.5,3.1562 18.49629,-14.9165 32.66672,1.0666 52.34375,-13.2812 6.81399,2.3974 10.64036,1.7105 12.5625,-0.9375 -1.31291,-13.0738 3.35364,-14.4871 13.46875,-10.0937 9.82659,-1.0444 9.43705,-4.7428 13.46875,-7.2813 -0.7053,-4.1776 -4.58906,-7.262 -0.9375,-12.9375 10.1095,-0.8707 18.34265,1.459 32.15625,-5.6875 1.31706,-6.9008 -4.94403,-7.9307 -9.46875,-10.3125 -0.0207,0.1374 -0.0348,0.2635 -0.0625,0.4062 -13.00319,6.6183 -20.7336,4.4437 -30.25,5.25 -3.43734,5.2559 0.21108,8.1313 0.875,12 -3.79517,2.3509 -3.43741,5.7517 -12.6875,6.7188 -9.52168,-4.0687 -13.92338,-2.7637 -12.6875,9.3438 -1.80937,2.4522 -5.39826,3.0952 -11.8125,0.875 -18.52263,13.2871 -31.83884,-1.5327 -49.25,12.2812 -5.76802,1.7335 -12.01307,1.5758 -19.3125,-2.9062 -8.20789,-6.1407 -12.7666,-12.8699 -30.25,-17.5626 -26.15026,-6.0595 -22.28557,-7.8987 -27.96875,-11.0937 -0.60916,-4.4066 -4.29308,-6.1999 -9.5,-6.7187 -4.98312,-3.1563 -14.30044,4.7917 -11.8125,-12.2813 l 4.3125,-10.8437 c -1.67482,-2.0553 -2.18493,-4.039 -11.8125,-6.4063 -2.34475,1.5248 -5.62027,-1.2658 -9.5,-6.75 -1.83727,-2.0429 -1.74337,-5.4509 0.34375,-10.2813 -0.41435,0.03 -0.8327,0.01 -1.28125,-0.031 z"
       style="fill:#584f52;fill-opacity:1;stroke:#584f52;stroke-width:2.06999993;stroke-linecap:butt;stroke-linejoin:miter;stroke-miterlimit:4;stroke-opacity:1;stroke-dasharray:none" />
    <path
       inkscape:connector-curvature="0"
       id="path3815-0-8"
       d="m 573.33487,766.9753 c -2.32733,1.08787 -4.07596,1.90114 -6.21875,2.90625 3.39189,2.66177 7.17065,5.07353 5.5625,10.90625 9.13268,3.59115 12.19,6.15184 12.125,8.1875 10.19882,5.37806 19.50692,8.41023 27.84375,8.75 -5.54687,-1.59703 -11.42544,-4.09999 -17.59375,-7.40625 0.0691,-2.19815 -3.14189,-4.9347 -12.84375,-8.8125 2.21837,-8.17852 -5.24496,-10.12279 -8.875,-14.53125 z m -57.71875,18.4375 c -0.39162,-0.003 -0.80426,-0.009 -1.21875,0.0312 1.71206,0.80931 3.20764,1.97747 4.6875,3.21875 0.72119,-0.36524 1.82889,-0.88664 2.6875,-1.3125 -1.79626,-1.13272 -3.77193,-1.91676 -6.15625,-1.9375 z m -18.375,0.40625 c 1.5039,0.44283 2.99168,0.87726 4.5625,1.09375 0.0297,-0.0167 0.0641,-0.0147 0.0937,-0.0312 -1.5239,-0.45489 -3.04983,-0.89133 -4.65625,-1.0625 z m 125.9375,13.875 c 1.19494,1.02382 1.71769,2.90292 0.8125,6.53122 6.64638,-0.3582 10.21223,0.5353 12.90625,1.7813 1.74247,-8.87174 -5.20797,-6.7967 -9.375,-8.2188 -1.41413,0.044 -2.87245,0.019 -4.34375,-0.0937 z m 15.4375,9.18752 c 1.35784,0.7704 2.59513,1.5992 4.09375,2.3125 -3.45123,4.5416 0.86944,6.1105 3.15625,8.4687 0.28814,3.6767 0.58686,6.4349 0.875,9.375 -3.20725,2.4166 -4.46058,6.3165 -14.125,3.7813 2.65872,3.4037 9.70641,3.698 5.46875,12 -5.66686,5.5634 -11.33314,5.5832 -17,5.8437 -6.10116,-0.085 -11.65526,-3.468 -18.4375,0.5938 0.89452,1.7883 3.16402,3.1981 -1.15625,6.4375 -10.22264,1.1366 -19.77456,4.2857 -31.40625,1.1563 -29.5004,-20.1758 -28.70395,-2.4041 -24.46875,15.7812 -6.3107,2.2773 -4.61206,5.481 -4.34375,8.5 1.01973,3.1291 3.78045,4.0322 7.21875,4.0938 0.30778,-1.6215 1.49604,-3.1127 4.9375,-4.375 -4.49915,-19.6369 -5.30772,-38.8488 26.03125,-17.0626 12.35662,3.3793 22.48399,-0.023 33.34375,-1.25 4.58952,-3.498 2.20027,-5.0377 1.25,-6.9687 7.20493,-4.386 13.11235,-0.7167 19.59375,-0.625 6.02004,-0.2813 12.04246,-0.305 18.0625,-6.3125 4.50177,-8.9647 -3.01932,-9.2622 -5.84375,-12.9375 10.26675,2.7376 11.59286,-1.5155 15,-4.125 -0.3061,-3.1748 -0.60015,-6.1236 -0.90625,-10.0937 -2.42934,-2.5466 -7.04133,-4.2521 -3.375,-9.1563 -4.78116,-2.3131 -7.00313,-5.6759 -17.96875,-5.4375 z m -277.71875,25.6562 c -0.0572,0.1746 -0.12734,0.33 -0.1875,0.5 0.24667,-0.1132 0.46721,-0.2528 0.6875,-0.4062 -0.16816,-0.027 -0.32995,-0.063 -0.5,-0.094 z m -8.28125,5.6876 c -0.9986,3.5677 -1.9978,7.1136 -3.28125,10.0937 2.57185,-1.8411 4.23716,-5.5374 5.625,-9.7813 -0.69605,0.016 -1.48653,-0.079 -2.34375,-0.3124 z m -12.53125,17.6562 c -5.44107,8.9694 -6.69034,14.924 -3.96875,18 4.12153,5.9219 7.60286,8.9277 10.09375,7.2812 10.22759,2.5563 10.75205,4.7182 12.53125,6.9376 l -4.59375,11.6874 c -2.64299,18.4358 7.26882,9.8419 12.5625,13.25 5.53144,0.5604 9.44662,2.4918 10.09375,7.25 6.03738,3.45012 1.90746,5.45692 29.6875,12.00007 18.57304,5.0673 23.43681,12.338 32.15625,18.9688 7.75435,4.8399 14.3725,5.0282 20.5,3.1562 18.49629,-14.9165 32.66672,1.0666 52.34375,-13.2812 6.81399,2.3974 10.64036,1.7105 12.5625,-0.9375 -1.31291,-13.07385 3.35364,-14.48715 13.46875,-10.09375 9.82659,-1.0444 9.43705,-4.7428 13.46875,-7.2813 -0.7053,-4.17762 -4.58906,-7.26202 -0.9375,-12.93752 10.1095,-0.8707 18.34265,1.459 32.15625,-5.6875 1.31706,-6.9008 -4.94403,-7.9307 -9.46875,-10.3125 -0.0207,0.1374 -0.0348,0.2635 -0.0625,0.4062 -13.00319,6.6183 -20.7336,4.4437 -30.25,5.25 -3.43734,5.2559 0.21108,8.1313 0.875,12 -3.79517,2.3509 -3.43741,5.7517 -12.6875,6.7188 -9.52168,-4.0687 -13.92338,-2.7637 -12.6875,9.34382 -1.80937,2.4522 -5.39826,3.0952 -11.8125,0.875 -18.52263,13.28715 -31.83884,-1.5327 -49.25,12.28125 -5.76802,1.7335 -12.01307,1.5758 -19.3125,-2.9062 -8.20789,-6.1407 -12.7666,-12.86995 -30.25,-17.56267 -26.15026,-6.0595 -22.28557,-7.8987 -27.96875,-11.0937 -0.60916,-4.4066 -4.29308,-6.1999 -9.5,-6.7187 -4.98312,-3.1563 -14.30044,4.7917 -11.8125,-12.2813 l 4.3125,-10.8437 c -1.67482,-2.0553 -2.18493,-4.039 -11.8125,-6.4063 -2.34475,1.5248 -5.62027,-1.2658 -9.5,-6.75 -1.83727,-2.0429 -1.74337,-5.4509 0.34375,-10.2813 -0.41435,0.03 -0.8327,0.01 -1.28125,-0.031 z"
       style="opacity:0.44036698;fill:url(#linearGradient4345);fill-opacity:1;stroke:#584f52;stroke-width:2.06999993;stroke-linecap:butt;stroke-linejoin:miter;stroke-miterlimit:4;stroke-opacity:1;stroke-dasharray:none" />
    <path
       sodipodi:nodetypes="ssssss"
       inkscape:connector-curvature="0"
       id="path4280"
       d="m 613.16258,836.53856 c 0,9.52904 -57.56967,-1.86057 -66.68314,6.07981 -21.64877,18.86214 -36.52164,79.9392 -87.36511,79.9392 -72.24698,0 -100.57408,-41.73225 -100.51017,-73.89718 0.0639,-32.11363 82.03387,-19.22866 122.73353,-44.60274 58.23266,-36.30499 131.82489,0.31596 131.82489,32.48091 z"
       style="opacity:0.8669725;fill:#00ff00;fill-opacity:1;fill-rule:nonzero;stroke:none;filter:url(#filter4333)" />
  </g>
</svg>
